<svg xmlns="http://www.w3.org/2000/svg" viewBox="0 0 40 40" fill="none" role="img" aria-label="Career Portal">
  <defs>
    <linearGradient id="cp-gradient" x1="4" y1="4" x2="36" y2="36" gradientUnits="userSpaceOnUse">
      <stop stop-color="#0D6EFD"/>
      <stop offset="1" stop-color="#6610F2"/>
    </linearGradient>
    <linearGradient id="cp-shine" x1="8" y1="6" x2="28" y2="24" gradientUnits="userSpaceOnUse">
      <stop stop-color="#FFFFFF" stop-opacity="0.28"/>
      <stop offset="1" stop-color="#FFFFFF" stop-opacity="0"/>
    </linearGradient>
  </defs>
  <rect x="2" y="2" width="36" height="36" rx="10" fill="url(#cp-gradient)"/>
  <rect x="2" y="2" width="36" height="36" rx="10" fill="url(#cp-shine)"/>
  <path
    d="M14 17.5V15.8C14 14.25 15.25 13 16.8 13H23.2C24.75 13 26 14.25 26 15.8V17.5"
    stroke="#FFFFFF"
    stroke-width="1.8"
    stroke-linecap="round"
  />
  <path
    d="M12.5 17.5H27.5C28.6 17.5 29.5 18.4 29.5 19.5V25.2C29.5 26.3 28.6 27.2 27.5 27.2H12.5C11.4 27.2 10.5 26.3 10.5 25.2V19.5C10.5 18.4 11.4 17.5 12.5 17.5Z"
    stroke="#FFFFFF"
    stroke-width="1.8"
    stroke-linejoin="round"
  />
  <path
    d="M17.5 17.5V16.3C17.5 15.45 18.2 14.75 19.05 14.75H20.95C21.8 14.75 22.5 15.45 22.5 16.3V17.5"
    stroke="#FFFFFF"
    stroke-width="1.8"
    stroke-linecap="round"
  />
  <path
    d="M20 21.2L22.1 23.3L26.3 19.1"
    stroke="#FFFFFF"
    stroke-width="1.9"
    stroke-linecap="round"
    stroke-linejoin="round"
  />
</svg>
